<svg width="19" height="24" viewBox="0 0 19 24" fill="none" xmlns="http://www.w3.org/2000/svg">
<path d="M14.1797 23.7261C15.2662 23.7261 16.2623 23.1364 16.8047 22.1951C17.5636 20.8789 18 19.355 18 17.7261C18 16.0329 17.5275 14.4537 16.7137 13.1033L18.75 11.067L19.1897 11.5067C19.4827 11.7997 19.9575 11.7997 20.2505 11.5067L20.7802 10.9761C21.0731 10.6831 21.0731 10.2083 20.7802 9.91529L18.3103 7.44545C18.0173 7.15248 17.5425 7.15248 17.2495 7.44545L16.7194 7.97561C16.4264 8.26858 16.4264 8.74342 16.7194 9.03639L17.1591 9.47608L15.3117 11.3234C14.7698 10.7905 14.1619 10.3236 13.5 9.94014V2.71389L14.2486 2.71295C14.662 2.71248 14.9972 2.37732 14.9977 1.96389L14.9995 0.477012C15 0.0621684 14.6634 -0.274394 14.2486 -0.273925L3.75141 -0.261738C3.33797 -0.261269 3.00281 0.0738872 3.00234 0.487325L3.00047 1.97467C3 2.38951 3.33656 2.72561 3.75141 2.72514L4.5 2.7242V9.93967C1.81266 11.4964 0 14.3965 0 17.7261C0 19.355 0.436406 20.8794 1.19531 22.1951C1.73812 23.1364 2.73422 23.7261 3.82031 23.7261H14.1797ZM5.62781 11.8869L6.75 11.2367V2.72186L11.25 2.7167V11.2367L12.3722 11.8869C13.5352 12.5604 14.4403 13.5617 15.0234 14.7261H2.97656C3.56016 13.5617 4.46484 12.5604 5.62781 11.8869Z" fill="#EC4899"/>
</svg>
