<svg width="30" height="24" viewBox="0 0 30 24" fill="none" xmlns="http://www.w3.org/2000/svg">
<path d="M3.375 3H4.5V14.25C4.5 16.3172 6.18281 18 8.25 18C10.3172 18 12 16.3172 12 14.25V3H13.125C13.3313 3 13.5 2.83125 13.5 2.625V0.375C13.5 0.16875 13.3313 0 13.125 0H3.375C3.16875 0 3 0.16875 3 0.375V2.625C3 2.83125 3.16875 3 3.375 3ZM6.75 3H9.75V7.5H6.75V3ZM29.25 21H0.75C0.3375 21 0 21.3375 0 21.75V23.25C0 23.6625 0.3375 24 0.75 24H29.25C29.6625 24 30 23.6625 30 23.25V21.75C30 21.3375 29.6625 21 29.25 21ZM16.875 3H18V14.25C18 16.3172 19.6828 18 21.75 18C23.8172 18 25.5 16.3172 25.5 14.25V3H26.625C26.8312 3 27 2.83125 27 2.625V0.375C27 0.16875 26.8312 0 26.625 0H16.875C16.6688 0 16.5 0.16875 16.5 0.375V2.625C16.5 2.83125 16.6688 3 16.875 3ZM20.25 3H23.25V7.5H20.25V3Z" fill="#10B981"/>
</svg>
