<svg width="21" height="24" viewBox="0 0 21 24" fill="none" xmlns="http://www.w3.org/2000/svg">
<path d="M18.75 0H2.25C1.05 0 0 1.05 0 2.25V21.75C0 22.95 1.05 24 2.25 24H18.75C19.95 24 21 22.95 21 21.75V2.25C21 1.05 19.95 0 18.75 0ZM6 20.4C6 20.7 5.7 21 5.4 21H3.6C3.3 21 3 20.7 3 20.4V18.6C3 18.3 3.3 18 3.6 18H5.4C5.7 18 6 18.3 6 18.6V20.4ZM6 14.4C6 14.7 5.7 15 5.4 15H3.6C3.3 15 3 14.7 3 14.4V12.6C3 12.3 3.3 12 3.6 12H5.4C5.7 12 6 12.3 6 12.6V14.4ZM12 20.4C12 20.7 11.7 21 11.4 21H9.6C9.3 21 9 20.7 9 20.4V18.6C9 18.3 9.3 18 9.6 18H11.4C11.7 18 12 18.3 12 18.6V20.4ZM12 14.4C12 14.7 11.7 15 11.4 15H9.6C9.3 15 9 14.7 9 14.4V12.6C9 12.3 9.3 12 9.6 12H11.4C11.7 12 12 12.3 12 12.6V14.4ZM18 20.4C18 20.7 17.7 21 17.4 21H15.6C15.3 21 15 20.7 15 20.4V12.6C15 12.3 15.3 12 15.6 12H17.4C17.7 12 18 12.3 18 12.6V20.4ZM18 8.4C18 8.7 17.7 9 17.4 9H3.6C3.3 9 3 8.7 3 8.4V3.6C3 3.3 3.3 3 3.6 3H17.4C17.7 3 18 3.3 18 3.6V8.4Z" fill="#3B82F6"/>
</svg>
