<svg width="21" height="25" viewBox="0 0 21 25" fill="none" xmlns="http://www.w3.org/2000/svg">
<path d="M10.4999 10.7739C10.2032 10.774 9.91325 10.862 9.66662 11.0269C9.41999 11.1917 9.22778 11.426 9.1143 11.7001C9.00082 11.9742 8.97116 12.2758 9.02907 12.5668C9.08699 12.8577 9.22988 13.125 9.43967 13.3347C9.64946 13.5444 9.91673 13.6873 10.2077 13.7451C10.4987 13.803 10.8002 13.7733 11.0743 13.6597C11.3484 13.5462 11.5826 13.3539 11.7474 13.1072C11.9122 12.8606 12.0002 12.5706 12.0002 12.2739C11.9994 11.8763 11.8411 11.4952 11.5599 11.214C11.2786 10.9329 10.8975 10.7746 10.4998 10.7739H10.4999ZM20.5391 6.27393C20.0293 5.35986 18.6402 3.89502 15.0888 4.31104C14.0808 1.90869 12.5452 0.273926 10.4998 0.273926C8.45444 0.273926 6.91905 1.90869 5.91096 4.31104C2.35943 3.90088 0.970478 5.35986 0.460618 6.27393C-0.307147 7.65088 -0.242694 9.70166 1.63854 12.2739C-0.242694 14.8462 -0.307147 16.897 0.460618 18.2739C1.82609 20.729 5.22532 20.3188 5.91096 20.2368C6.91901 22.6392 8.45444 24.2739 10.4998 24.2739C12.5452 24.2739 14.0808 22.6392 15.0888 20.2368C15.7745 20.3188 19.1736 20.729 20.5391 18.2739C21.3069 16.897 21.2425 14.8462 19.3612 12.2739C21.2425 9.70166 21.3069 7.65088 20.5391 6.27393ZM2.96895 16.7739C2.78145 16.4341 2.96309 15.6138 3.67226 14.5122C4.00221 14.8244 4.34435 15.1235 4.69788 15.4087C4.7741 16.0532 4.88538 16.6802 5.01429 17.2896C3.85985 17.3306 3.14482 17.0845 2.96895 16.7739ZM4.69793 9.13916C4.34438 9.42439 4.00223 9.72345 3.67226 10.0356C2.96304 8.93408 2.78145 8.11377 2.96895 7.77393C3.12724 7.48682 3.73671 7.23486 4.7448 7.23486C4.82684 7.23486 4.92645 7.25244 5.01434 7.25244C4.87995 7.87615 4.77437 8.50573 4.69793 9.13916ZM10.4998 3.27393C10.9452 3.27393 11.5431 3.90674 12.0881 5.02002C11.5607 5.1958 11.0332 5.39502 10.4998 5.62354C9.97904 5.40037 9.44915 5.19902 8.91157 5.02002C9.45673 3.90674 10.0544 3.27393 10.4999 3.27393H10.4998ZM10.4998 21.2739C10.0544 21.2739 9.45668 20.6411 8.91157 19.5278C9.4391 19.3521 9.96654 19.1528 10.4998 18.9243C11.0206 19.1475 11.5505 19.3488 12.0881 19.5278C11.5431 20.6411 10.9452 21.2739 10.4998 21.2739ZM10.4998 16.0239C9.75816 16.0239 9.03313 15.804 8.41645 15.3919C7.79976 14.9799 7.31912 14.3942 7.03529 13.709C6.75146 13.0238 6.6772 12.2698 6.82189 11.5423C6.96659 10.8149 7.32374 10.1467 7.84819 9.62228C8.37263 9.09783 9.04082 8.74067 9.76825 8.59598C10.4957 8.45129 11.2497 8.52555 11.9349 8.80938C12.6201 9.09321 13.2058 9.57385 13.6178 10.1905C14.0299 10.8072 14.2498 11.5322 14.2498 12.2739C14.2498 13.2685 13.8547 14.2223 13.1515 14.9256C12.4482 15.6288 11.4944 16.0239 10.4998 16.0239ZM18.0308 16.7739C17.8609 17.0845 17.14 17.3306 15.9854 17.2896C16.1144 16.6802 16.2258 16.0532 16.3019 15.4087C16.6554 15.1235 16.9976 14.8244 17.3275 14.5122C18.0367 15.6138 18.2183 16.4341 18.0308 16.7739ZM17.3275 10.0356C16.9975 9.72342 16.6554 9.42436 16.3019 9.13916C16.2255 8.50572 16.1198 7.87614 15.9854 7.25244C16.0733 7.25244 16.173 7.23486 16.255 7.23486C17.263 7.23486 17.8726 7.48682 18.0308 7.77393C18.2183 8.11377 18.0366 8.93408 17.3275 10.0356Z" fill="#8B5CF6"/>
</svg>
