<svg width="16" height="15" viewBox="0 0 16 15" fill="none" xmlns="http://www.w3.org/2000/svg">
<path d="M1 8.00021L12.86 8.00021L9.23 12.3602C9.06026 12.5644 8.9786 12.8277 9.00298 13.0921C9.02736 13.3566 9.15578 13.6005 9.36 13.7702C9.56422 13.94 9.8275 14.0216 10.0919 13.9972C10.3564 13.9729 10.6003 13.8444 10.77 13.6402L15.77 7.64021C15.8036 7.59249 15.8337 7.54235 15.86 7.49021C15.86 7.44021 15.86 7.41021 15.93 7.36021C15.9753 7.24555 15.9991 7.1235 16 7.00021C15.9991 6.87692 15.9753 6.75487 15.93 6.64021C15.93 6.59021 15.93 6.56021 15.86 6.51021C15.8337 6.45807 15.8036 6.40794 15.77 6.36021L10.77 0.360211C10.676 0.247329 10.5582 0.156549 10.4252 0.094327C10.2921 0.0321064 10.1469 -2.76566e-05 10 0.000210762C9.76635 -0.000245094 9.53991 0.0811291 9.36 0.23021C9.25874 0.314159 9.17504 0.417261 9.11369 0.533608C9.05234 0.649956 9.01454 0.777262 9.00246 0.908238C8.99039 1.03922 9.00427 1.17129 9.04331 1.29689C9.08236 1.42249 9.1458 1.53916 9.23 1.64021L12.86 6.00021L1 6.00021C0.734784 6.00021 0.48043 6.10557 0.292893 6.29311C0.105357 6.48064 9.53674e-07 6.735 9.53674e-07 7.00021C9.53674e-07 7.26543 0.105357 7.51978 0.292893 7.70732C0.48043 7.89486 0.734784 8.00021 1 8.00021Z" fill="#F9FAFB"/>
</svg>
