<svg width="66" height="66" viewBox="0 0 66 66" fill="none" xmlns="http://www.w3.org/2000/svg">
<path d="M16.8001 32.999C13.596 32.999 10.4639 33.9491 7.79987 35.7292C5.13579 37.5093 3.0594 40.0394 1.83326 42.9995C0.607117 45.9597 0.286303 49.217 0.911383 52.3595C1.53646 55.502 3.07936 58.3885 5.34498 60.6541C7.61059 62.9197 10.4972 64.4626 13.6396 65.0877C16.7821 65.7128 20.0394 65.392 22.9996 64.1659C25.9597 62.9397 28.4898 60.8633 30.2699 58.1992C32.05 55.5352 33.0001 52.4031 33.0001 49.199C33.0001 44.9025 31.2933 40.782 28.2552 37.7439C25.2171 34.7058 21.0966 32.999 16.8001 32.999ZM64.7673 26.0558L51.234 2.91383C50.8168 2.2086 50.2232 1.62423 49.5114 1.2183C48.7997 0.812363 47.9945 0.598877 47.1751 0.598877C46.3557 0.598877 45.5505 0.812363 44.8388 1.2183C44.1271 1.62423 43.5334 2.2086 43.1162 2.91383L29.5829 26.0558C27.7807 29.1414 30.036 32.999 33.6443 32.999H60.7059C64.3142 32.999 66.5695 29.1414 64.7673 26.0558ZM61.3501 37.049H41.1001C40.026 37.049 38.9958 37.4757 38.2363 38.2352C37.4768 38.9947 37.0501 40.0249 37.0501 41.099V61.349C37.0501 62.4231 37.4768 63.4533 38.2363 64.2128C38.9958 64.9723 40.026 65.399 41.1001 65.399H61.3501C62.4242 65.399 63.4544 64.9723 64.2139 64.2128C64.9734 63.4533 65.4001 62.4231 65.4001 61.349V41.099C65.4001 40.0249 64.9734 38.9947 64.2139 38.2352C63.4544 37.4757 62.4242 37.049 61.3501 37.049Z" fill="#10B981"/>
</svg>
