<svg width="40" height="36" viewBox="0 0 40 36" fill="none" xmlns="http://www.w3.org/2000/svg">
<path d="M36.25 0.5H3.75C1.67969 0.5 0 2.17969 0 4.25V31.75C0 33.8203 1.67969 35.5 3.75 35.5H36.25C38.3203 35.5 40 33.8203 40 31.75V4.25C40 2.17969 38.3203 0.5 36.25 0.5ZM29.7188 23.1953C30.0938 23.5703 30.0938 24.1797 29.7188 24.5547L26.5547 27.7188C26.1797 28.0938 25.5703 28.0938 25.1953 27.7188L20 22.4766L14.8047 27.7188C14.4297 28.0938 13.8203 28.0938 13.4453 27.7188L10.2812 24.5547C9.90625 24.1797 9.90625 23.5703 10.2812 23.1953L15.5234 18L10.2812 12.8047C9.90625 12.4297 9.90625 11.8203 10.2812 11.4453L13.4453 8.28125C13.8203 7.90625 14.4297 7.90625 14.8047 8.28125L20 13.5234L25.1953 8.28125C25.5703 7.90625 26.1797 7.90625 26.5547 8.28125L29.7188 11.4453C30.0938 11.8203 30.0938 12.4297 29.7188 12.8047L24.4766 18L29.7188 23.1953Z" fill="#EF4444"/>
</svg>
