<svg width="56" height="48" viewBox="0 0 56 48" fill="none" xmlns="http://www.w3.org/2000/svg">
<path d="M54.6756 35.0388C55.6798 36.0431 55.6798 37.6712 54.6756 38.6754L46.1041 47.2451C44.4959 48.8533 41.7144 47.7261 41.7144 45.4267V41.1429H35.416C35.2397 41.1428 35.0653 41.1066 34.9036 41.0363C34.7419 40.966 34.5963 40.8633 34.476 40.7344L26.9165 32.6349L32.6307 26.5124L38.2858 32.5714H41.7144V28.2877C41.7144 25.9908 44.494 24.8594 46.1041 26.4694L54.6756 35.0388ZM1.85725 15.4286H10.8572L16.5124 21.4876L22.2266 15.3651L14.667 7.26557C14.5467 7.13667 14.4012 7.0339 14.2395 6.96364C14.0778 6.89338 13.9034 6.85712 13.7271 6.85714H1.85725C1.14721 6.85714 0.571533 7.43282 0.571533 8.14285V14.1429C0.571533 14.8529 1.14721 15.4286 1.85725 15.4286ZM41.7144 15.4286V19.7126C41.7144 22.0119 44.4959 23.139 46.1041 21.5309L54.6756 12.9612C55.6798 11.9569 55.6798 10.3288 54.6756 9.32464L46.1041 0.755244C44.494 -0.854899 41.7144 0.276637 41.7144 2.57346V6.85714H35.416C35.2397 6.85716 35.0653 6.89342 34.9036 6.96368C34.7419 7.03394 34.5963 7.1367 34.476 7.26557L10.8572 32.5714H1.85725C1.14721 32.5714 0.571533 33.1471 0.571533 33.8571V39.8571C0.571533 40.5672 1.14721 41.1429 1.85725 41.1429H13.7271C14.0834 41.1429 14.4238 40.9949 14.667 40.7344L38.2858 15.4286H41.7144Z" fill="#8B5CF6"/>
</svg>
